<svg xmlns="http://www.w3.org/2000/svg" xmlns:xlink="http://www.w3.org/1999/xlink" viewBox="0,0,256,256" width="48px" height="48px" fill-rule="nonzero"><g transform="translate(20.48,20.48) scale(0.84,0.84)"><g fill="#ffffff" fill-rule="nonzero" stroke="none" stroke-width="1" stroke-linecap="butt" stroke-linejoin="miter" stroke-miterlimit="10" stroke-dasharray="" stroke-dashoffset="0" font-family="none" font-weight="none" font-size="none" text-anchor="none" style="mix-blend-mode: normal"><path d="M51.80952,280.38095c-42.07884,0 -76.19048,-34.11164 -76.19048,-76.19048v-152.38095c0,-42.07884 34.11164,-76.19048 76.19048,-76.19048h152.38095c42.07884,0 76.19048,34.11164 76.19048,76.19048v152.38095c0,42.07884 -34.11164,76.19048 -76.19048,76.19048z" id="shape"></path></g><g fill="#004fff" fill-rule="nonzero" stroke="none" stroke-width="1" stroke-linecap="butt" stroke-linejoin="miter" stroke-miterlimit="10" stroke-dasharray="" stroke-dashoffset="0" font-family="none" font-weight="none" font-size="none" text-anchor="none" style="mix-blend-mode: normal"><g transform="scale(4,4)"><path d="M11,8c-1.657,0 -3,1.343 -3,3c0,1.657 1.343,3 3,3c1.657,0 3,-1.343 3,-3c0,-1.657 -1.343,-3 -3,-3zM40,9c-1.105,0 -2,0.895 -2,2c0,1.105 0.895,2 2,2c1.105,0 2,-0.895 2,-2c0,-1.105 -0.895,-2 -2,-2zM21,13c-1.215,0 -2.17666,1.08294 -1.97266,2.33594c0.16,0.983 1.08408,1.66406 2.08008,1.66406h1.56055c2.392,0 5.03516,1.20903 5.03516,4.33203c0,4.476 -0.70312,9.66797 -0.70312,9.66797c0,0 4,-5.54342 4,-11.48242c0,-3.669 -2.91758,-6.51758 -6.51758,-6.51758zM51.01367,13c-2.769,0 -5.01367,2.24467 -5.01367,5.01367v1.46875c0,0.286 -0.23158,0.51758 -0.51758,0.51758h-1.17773c-2.374,0 -4.30469,1.93069 -4.30469,4.30469l-0.03711,1.4375c-0.004,0.143 -0.12262,0.25781 -0.26562,0.25781h-0.50586c-1.293,0 -2.53326,0.51373 -3.44727,1.42773l-4.08594,4.08594c-0.673,0.672 -0.87037,1.73902 -0.35937,2.54102c0.402,0.631 1.05117,0.94531 1.70117,0.94531c0.512,0 1.02306,-0.19494 1.41406,-0.58594l4.15625,-4.15625c0.164,-0.165 0.38809,-0.25781 0.62109,-0.25781h0.76367c2.234,0 4.04492,-1.81092 4.04492,-4.04492v-1.65039c0,-0.168 0.13669,-0.30469 0.30469,-0.30469h1.17578c2.496,0 4.51953,-2.02353 4.51953,-4.51953v-1.4668c0,-0.559 0.45467,-1.01367 1.01367,-1.01367h3.90039c0.875,0 1.71742,-0.51466 1.98242,-1.34766c0.438,-1.381 -0.58048,-2.65234 -1.89648,-2.65234zM13,22c-1.105,0 -2,0.895 -2,2c0,1.105 0.895,2 2,2c1.105,0 2,-0.895 2,-2c0,-1.105 -0.895,-2 -2,-2zM53,26c-1.105,0 -2,0.895 -2,2c0,1.105 0.895,2 2,2c1.105,0 2,-0.895 2,-2c0,-1.105 -0.895,-2 -2,-2zM19,29c-0.51175,0 -1.02356,0.19544 -1.41406,0.58594c-0.781,0.781 -0.781,2.04713 0,2.82812l0.44141,0.44141l10.54492,18.07227l5.41797,-2.21094c0.31172,0.18362 0.65876,0.2832 1.00977,0.2832c0.512,0 1.02306,-0.19494 1.41406,-0.58594c0.781,-0.781 0.781,-2.04713 0,-2.82812l-16,-16c-0.3905,-0.3905 -0.90231,-0.58594 -1.41406,-0.58594zM46.48242,35c-5.939,0 -11.48242,4 -11.48242,4c0,0 5.19197,-0.70312 9.66797,-0.70312c3.123,0 4.33203,2.64316 4.33203,5.03516v1.56055c0,0.996 0.68106,1.92008 1.66406,2.08008c1.253,0.204 2.33594,-0.75766 2.33594,-1.97266v-3.48242c0,-3.6 -2.84858,-6.51758 -6.51758,-6.51758zM15.48047,36.42773l-2.1875,5.36523l7.21875,12.42383l4.32031,-1.76367zM11.38477,46.4707l-3.81836,9.35547c-0.304,0.745 -0.1315,1.59897 0.4375,2.16797c0.383,0.383 0.89306,0.58594 1.41406,0.58594c0.255,0 0.51086,-0.04648 0.75586,-0.14648l6.59766,-2.69336zM44,50c-1.657,0 -3,1.343 -3,3c0,1.657 1.343,3 3,3c1.657,0 3,-1.343 3,-3c0,-1.657 -1.343,-3 -3,-3z"></path></g></g></g></svg>